<?xml version="1.0" encoding="UTF-8"?>
<!--
  Licensed to the Apache Software Foundation (ASF) under one or more
  contributor license agreements.  See the NOTICE file distributed with
  this work for additional information regarding copyright ownership.
  The ASF licenses this file to You under the Apache License, Version 2.0
  (the "License"); you may not use this file except in compliance with
  the License.  You may obtain a copy of the License at

  http://www.apache.org/licenses/LICENSE-2.0

  Unless required by applicable law or agreed to in writing, software
  distributed under the License is distributed on an "AS IS" BASIS,
  WITHOUT WARRANTIES OR CONDITIONS OF ANY KIND, either express or implied.
  See the License for the specific language governing permissions and
  limitations under the License.
-->
<svg xmlns="http://www.w3.org/2000/svg" viewBox="0 0 147.86 32.69"><defs><style>.cls-1{fill:#fff;}</style></defs><title>Asset 11</title><g id="Layer_2" data-name="Layer 2"><g id="Layer_1-2" data-name="Layer 1"><path class="cls-1" d="M7,11.4,5.16,7.62H3.9V11.4h-3V.2h5A7.16,7.16,0,0,1,7.66.4,3.65,3.65,0,0,1,9,1a2.86,2.86,0,0,1,.89,1.13,4,4,0,0,1,.31,1.68A3.64,3.64,0,0,1,9.7,5.91,3.46,3.46,0,0,1,8.22,7.12l2.24,4.28ZM6.84,3.06a1.41,1.41,0,0,0-1-.34H3.9V5.17H5.74a1.48,1.48,0,0,0,1.09-.32,1.22,1.22,0,0,0,.32-.93A1.2,1.2,0,0,0,6.84,3.06Z"/><path class="cls-1" d="M12.32,11.4V.2H20.9V2.8H15.39V4.31h3.32V6.87H15.39V8.79H21V11.4Z"/><path class="cls-1" d="M32.29,8.4a4.06,4.06,0,0,1-1.15,1.74,4.81,4.81,0,0,1-1.9,1,10.21,10.21,0,0,1-2.62.3H23V.2h3.92A9.82,9.82,0,0,1,29.3.47a4.32,4.32,0,0,1,1.81.92,4.29,4.29,0,0,1,1.16,1.7,7.48,7.48,0,0,1,.4,2.64A8.21,8.21,0,0,1,32.29,8.4ZM29.35,4.45a2,2,0,0,0-.44-.91,1.8,1.8,0,0,0-.8-.52,3.83,3.83,0,0,0-1.21-.17h-.77V8.74h.67A4.4,4.4,0,0,0,28,8.59a1.87,1.87,0,0,0,.84-.5,1.93,1.93,0,0,0,.47-.91,5.6,5.6,0,0,0,.15-1.4A5.77,5.77,0,0,0,29.35,4.45Z"/><path class="cls-1" d="M46.48,11.4V7H43V11.4H39.82V.2H43V4.28h3.49V.2h3.17V11.4Z"/><path class="cls-1" d="M59.15,11.4l-.61-2H55.18l-.6,2H51.25L55.31.2h3.14l4.06,11.2ZM57.58,6.23c-.09-.36-.18-.68-.25-1s-.14-.5-.2-.72S57,4.16,57,4a4.86,4.86,0,0,1-.11-.55L56.75,4c0,.18-.09.38-.15.59s-.13.45-.2.72-.16.58-.26.93l-.2.73h1.85Z"/><path class="cls-1" d="M68.37,2.9v8.5H65.26V2.9H62.13V.2H71.5V2.9Z"/><path class="cls-1" d="M74.78,1.73a1.16,1.16,0,0,1-.26.39,1.31,1.31,0,0,1-.4.26,1.28,1.28,0,0,1-1,0,1.31,1.31,0,0,1-.4-.26,1.16,1.16,0,0,1-.26-.39,1.33,1.33,0,0,1-.09-.49,1.3,1.3,0,0,1,.09-.49,1.31,1.31,0,0,1,.26-.4,1.53,1.53,0,0,1,.4-.26A1.33,1.33,0,0,1,73.62,0a1.35,1.35,0,0,1,.5.09,1.53,1.53,0,0,1,.4.26,1.31,1.31,0,0,1,.26.4,1.3,1.3,0,0,1,.1.49A1.34,1.34,0,0,1,74.78,1.73Zm-.2-.9a1.21,1.21,0,0,0-.22-.32A.93.93,0,0,0,74,.3a1.07,1.07,0,0,0-.41-.08,1.06,1.06,0,0,0-.4.08.93.93,0,0,0-.33.21,1.21,1.21,0,0,0-.22.32,1.1,1.1,0,0,0-.07.41,1.05,1.05,0,0,0,.07.4,1.07,1.07,0,0,0,.22.32.83.83,0,0,0,.33.22,1.06,1.06,0,0,0,.4.08A1.07,1.07,0,0,0,74,2.18.83.83,0,0,0,74.36,2a1.07,1.07,0,0,0,.22-.32,1.05,1.05,0,0,0,.07-.4A1.1,1.1,0,0,0,74.58.83Zm-.44.4a.5.5,0,0,1-.19.13l.26.53h-.32l-.25-.49h-.23v.49h-.29V.54h.63a.55.55,0,0,1,.34.1.38.38,0,0,1,.13.32A.41.41,0,0,1,74.14,1.23ZM73.87.84a.2.2,0,0,0-.14,0h-.32v.35h.32c.13,0,.2-.06.2-.18A.15.15,0,0,0,73.87.84Z"/><path class="cls-1" d="M11.76,31.23,10.32,27H3.38L1.92,31.23H0l5.83-16.8H7.9l5.83,16.8ZM7.9,19.73c-.1-.27-.2-.57-.3-.89s-.21-.62-.3-.92-.18-.58-.26-.84-.13-.48-.17-.66c0,.18-.11.39-.19.65s-.15.53-.25.84-.2.62-.31.95-.22.63-.31.92L4,25.25H9.74Z"/><path class="cls-1" d="M29.9,31.23V18.05c0,.16-.1.36-.18.59s-.15.47-.25.72-.19.5-.28.76l-.29.72L24.42,31.66,20,20.84c-.09-.21-.19-.45-.28-.71l-.28-.77q-.14-.37-.24-.72L19,18.05V31.23H17.21V14.43H19.3l4,10.05c.09.26.2.54.32.84s.24.61.35.92.22.58.31.85.17.48.22.66c.05-.18.12-.4.22-.67s.19-.56.31-.87.23-.61.35-.91.22-.58.32-.82l4-10h2v16.8Z"/><path class="cls-1" d="M48.55,27a8,8,0,0,1-2.16,3l1.08,1.75-1.53.91L44.88,31a6.12,6.12,0,0,1-2.54.53,6.2,6.2,0,0,1-5-2.42,8.36,8.36,0,0,1-1.41-2.74,11.57,11.57,0,0,1-.49-3.48,11.73,11.73,0,0,1,.5-3.49,8.62,8.62,0,0,1,1.42-2.75,6.41,6.41,0,0,1,2.21-1.8,6.29,6.29,0,0,1,2.85-.65,6.41,6.41,0,0,1,2.85.64,6.29,6.29,0,0,1,2.19,1.79,8.62,8.62,0,0,1,1.42,2.73,11.35,11.35,0,0,1,.5,3.48A10.66,10.66,0,0,1,48.55,27Zm-1.47-7a7.09,7.09,0,0,0-1.1-2.2,4.78,4.78,0,0,0-1.63-1.42,4.27,4.27,0,0,0-2-.49,4.14,4.14,0,0,0-2,.49,4.81,4.81,0,0,0-1.6,1.39,6.76,6.76,0,0,0-1.05,2.19,9.79,9.79,0,0,0-.39,2.86,9.48,9.48,0,0,0,.4,2.87,7.12,7.12,0,0,0,1.08,2.21,4.75,4.75,0,0,0,1.62,1.42,4.39,4.39,0,0,0,2,.49A4.27,4.27,0,0,0,44,29.5l-1.37-2.23,1.54-.91,1.34,2.2A5.94,5.94,0,0,0,47,26.26a10,10,0,0,0,.52-3.41A9.91,9.91,0,0,0,47.08,20Z"/><path class="cls-1" d="M69.37,30a6,6,0,0,1-4.07,1.24h-6V14.43h6.14a6.2,6.2,0,0,1,1.84.25,4,4,0,0,1,1.44.77,3.4,3.4,0,0,1,1,1.3A4.84,4.84,0,0,1,70,18.62a3.4,3.4,0,0,1-.67,2.22,3.92,3.92,0,0,1-1.75,1.21,4.94,4.94,0,0,1,1.15.44,3.73,3.73,0,0,1,1.78,2,4.8,4.8,0,0,1,.29,1.74A4.72,4.72,0,0,1,69.37,30ZM67.44,16.84a2.76,2.76,0,0,0-2.09-.71h-4.2v5.21h4.06a2.81,2.81,0,0,0,2.23-.78,2.73,2.73,0,0,0,.67-1.87A2.55,2.55,0,0,0,67.44,16.84Zm.5,7.07A3.74,3.74,0,0,0,65.33,23H61.15v6.48h4.27a3.5,3.5,0,0,0,2.69-.86,3.26,3.26,0,0,0,.79-2.3A3.11,3.11,0,0,0,67.94,23.91Z"/><path class="cls-1" d="M85.1,22.35a5.23,5.23,0,0,1-2.88,1.58l3.7,7.3H83.76l-3.6-7.15h-4v7.15H74.3V14.43H81a6.91,6.91,0,0,1,2.07.29,4.49,4.49,0,0,1,1.65.87,4.24,4.24,0,0,1,1.11,1.48,5,5,0,0,1,.4,2.11A4.56,4.56,0,0,1,85.1,22.35Zm-1.66-5.44a3.75,3.75,0,0,0-2.56-.78h-4.7v6.24h4.46a4.14,4.14,0,0,0,2.77-.78,2.92,2.92,0,0,0,.9-2.35A3,3,0,0,0,83.44,16.91Z"/><path class="cls-1" d="M102.29,26.3A8.29,8.29,0,0,1,100.86,29a6.63,6.63,0,0,1-2.22,1.8,6.2,6.2,0,0,1-2.86.65,6.33,6.33,0,0,1-2.84-.63,6.44,6.44,0,0,1-2.2-1.79,8.54,8.54,0,0,1-1.4-2.74,11.57,11.57,0,0,1-.49-3.48,11.73,11.73,0,0,1,.5-3.49,8.62,8.62,0,0,1,1.42-2.75A6.41,6.41,0,0,1,93,14.81a6.29,6.29,0,0,1,2.85-.65,6.25,6.25,0,0,1,5,2.43,8.62,8.62,0,0,1,1.42,2.73,11.66,11.66,0,0,1,.5,3.48A11.79,11.79,0,0,1,102.29,26.3ZM100.52,20a6.86,6.86,0,0,0-1.09-2.2,4.87,4.87,0,0,0-1.63-1.42,4.27,4.27,0,0,0-2-.49,4.14,4.14,0,0,0-2,.49,4.81,4.81,0,0,0-1.6,1.39,7,7,0,0,0-1.06,2.19,10.15,10.15,0,0,0-.38,2.86,9.48,9.48,0,0,0,.4,2.87,7.12,7.12,0,0,0,1.08,2.21,4.66,4.66,0,0,0,1.62,1.42,4.39,4.39,0,0,0,2,.49,4.33,4.33,0,0,0,2-.49,4.77,4.77,0,0,0,1.61-1.4,6.92,6.92,0,0,0,1.06-2.18,10.23,10.23,0,0,0,.38-2.87A9.57,9.57,0,0,0,100.52,20Z"/><path class="cls-1" d="M116.52,31.23l-5-8.95-3.19,4.12v4.83h-1.87V14.43h1.87V24l.47-.66.66-.9c.24-.32.47-.63.71-.93s.43-.57.61-.79l4.87-6.29h2l-4.92,6.31,5.86,10.49Z"/><path class="cls-1" d="M121.9,31.23V14.43h10.15v1.7h-8.28v5.28h4.8v1.71h-4.8v6.4h8.64v1.71Z"/><path class="cls-1" d="M146.78,22.35a5.23,5.23,0,0,1-2.88,1.58l3.7,7.3h-2.16l-3.6-7.15h-4v7.15H136V14.43h6.65a6.91,6.91,0,0,1,2.07.29,4.49,4.49,0,0,1,1.65.87,4.24,4.24,0,0,1,1.11,1.48,5,5,0,0,1,.4,2.11A4.56,4.56,0,0,1,146.78,22.35Zm-1.66-5.44a3.75,3.75,0,0,0-2.56-.78h-4.7v6.24h4.46a4.14,4.14,0,0,0,2.77-.78,2.92,2.92,0,0,0,.9-2.35A3,3,0,0,0,145.12,16.91Z"/></g></g></svg>